<svg width="19" height="19" viewBox="0 0 19 19" fill="none" xmlns="http://www.w3.org/2000/svg">
<path d="M6.63516 1.63282C4.76336 1.7961 3.12016 2.88415 2.24289 4.54368C1.62836 5.70891 1.45766 7.10126 1.77532 8.3793C2.12711 9.79094 3.02813 11.0081 4.28094 11.7607C5.94493 12.7597 8.02602 12.7923 9.71227 11.8483C9.88891 11.7488 10.2066 11.5455 10.309 11.4653L10.3535 11.4297L13.2703 14.345C15.5399 16.6131 16.2049 17.2692 16.2688 17.3048C16.5642 17.4681 16.907 17.4117 17.1594 17.1594C17.4102 16.9085 17.4681 16.5612 17.3049 16.2702C17.2692 16.2049 16.6131 15.5399 14.345 13.2703L11.4297 10.3535L11.4653 10.309C11.5455 10.2066 11.7459 9.89485 11.8468 9.71524C12.4806 8.58415 12.684 7.26305 12.4227 5.97907C12.252 5.13297 11.8958 4.3804 11.3243 3.65305C11.1714 3.4586 10.7142 2.99844 10.5242 2.84704C9.67813 2.1761 8.75188 1.78126 7.71876 1.65509C7.4961 1.62688 6.85337 1.61501 6.63516 1.63282ZM7.51391 3.00587C8.92852 3.15579 10.1561 4.02118 10.7677 5.29922C10.9384 5.65696 11.0452 5.99243 11.1106 6.3754C11.3109 7.55251 11.0052 8.73258 10.2585 9.65883C10.116 9.83696 9.82063 10.1309 9.64399 10.2719C9.03243 10.7602 8.31251 11.0571 7.51837 11.1491C7.31501 11.1729 6.84149 11.1729 6.63516 11.1491C5.84993 11.0601 5.11516 10.7543 4.49766 10.263C4.33586 10.1338 4.01227 9.81024 3.88313 9.64844C3.42149 9.06954 3.12907 8.38969 3.01774 7.63712C2.98063 7.38329 2.98063 6.75688 3.01774 6.51641C3.09344 6.02657 3.21219 5.64805 3.41703 5.23688C3.89649 4.27649 4.73961 3.54172 5.75196 3.20032C6.03844 3.10235 6.3843 3.02813 6.67227 2.99993C6.88751 2.97915 7.29422 2.98212 7.51391 3.00587Z" fill="#F4A026"/>
</svg>
