<svg width="21" height="20" viewBox="0 0 21 20" fill="none" xmlns="http://www.w3.org/2000/svg">
<path d="M16.59 6.93666C16.569 6.72897 16.401 6.54206 16.17 6.54206H13.86V5.08827C13.86 3.26065 12.348 1.76532 10.5 1.76532C8.65199 1.76532 7.13999 3.26065 7.13999 5.08827V6.54206H4.82999C4.61999 6.54206 4.43099 6.70821 4.40999 6.93666L3.56999 18.567C3.56999 18.6916 3.61199 18.7954 3.67499 18.8785C3.73799 18.9616 3.86399 19.0031 3.98999 19.0031H17.01C17.136 19.0031 17.241 18.9616 17.325 18.8785C17.409 18.7954 17.451 18.6708 17.43 18.567L16.59 6.93666ZM7.97999 5.08827C7.97999 3.71755 9.11399 2.59606 10.5 2.59606C11.886 2.59606 13.02 3.71755 13.02 5.08827V6.54206H7.97999V5.08827ZM4.43099 18.1724L5.20799 7.3728H7.13999V10.0727C7.13999 10.3011 7.32899 10.4881 7.55999 10.4881C7.79099 10.4881 7.97999 10.3011 7.97999 10.0727V7.3728H13.02V10.0727C13.02 10.3011 13.209 10.4881 13.44 10.4881C13.671 10.4881 13.86 10.3011 13.86 10.0727V7.3728H15.771L16.548 18.1724H4.43099Z" fill="black"/>
</svg>
